HIERARCHY
ROOT joint_Root
{
	OFFSET 0.0 0.0 0.0
	CHANNELS 6 Xposition Yposition Zposition Zrotation Xrotation Yrotation 
	JOINT Hips
	{
		OFFSET 4.5925 91.4895 -427.239
		CHANNELS 6 Xposition Yposition Zposition Zrotation Xrotation Yrotation 
		JOINT Spine
		{
			OFFSET 15.7357 0.0 0.0
			CHANNELS 6 Xposition Yposition Zposition Zrotation Xrotation Yrotation 
			JOINT Chest
			{
				OFFSET 8.98455 -0.406207 0.0
				CHANNELS 6 Xposition Yposition Zposition Zrotation Xrotation Yrotation 
				JOINT Neck
				{
					OFFSET 16.3773 0.0 0.0
					CHANNELS 6 Xposition Yposition Zposition Zrotation Xrotation Yrotation 
					JOINT Head
					{
						OFFSET 6.45672 0.0 0.0
						CHANNELS 6 Xposition Yposition Zposition Zrotation Xrotation Yrotation 
						End Site
						{
							OFFSET 0.0 0.0 0.0
						}
					}
				}
				JOINT Shoulder_L
				{
					OFFSET 12.9942 -0.242716 4.98039
					CHANNELS 6 Xposition Yposition Zposition Zrotation Xrotation Yrotation 
					JOINT UpperArm_L
					{
						OFFSET 5.34809 0.0 0.0
						CHANNELS 6 Xposition Yposition Zposition Zrotation Xrotation Yrotation 
						JOINT LowerArm_L
						{
							OFFSET 24.3286 1.87007e-05 0.0
							CHANNELS 6 Xposition Yposition Zposition Zrotation Xrotation Yrotation 
							JOINT Hand_L
							{
								OFFSET 22.2916 0.0 0.0
								CHANNELS 6 Xposition Yposition Zposition Zrotation Xrotation Yrotation 
								End Site
								{
									OFFSET 0.0 0.0 0.0
								}
							}
						}
					}
				}
				JOINT Shoulder_R
				{
					OFFSET 12.9945 -0.242716 -4.98039
					CHANNELS 6 Xposition Yposition Zposition Zrotation Xrotation Yrotation 
					JOINT UpperArm_R
					{
						OFFSET -5.34813 0.0 0.0
						CHANNELS 6 Xposition Yposition Zposition Zrotation Xrotation Yrotation 
						JOINT LowerArm_R
						{
							OFFSET -24.3289 0.000322201 0.0
							CHANNELS 6 Xposition Yposition Zposition Zrotation Xrotation Yrotation 
							JOINT Hand_R
							{
								OFFSET -22.2915 -0.000108084 0.0
								CHANNELS 6 Xposition Yposition Zposition Zrotation Xrotation Yrotation 
								End Site
								{
									OFFSET 0.0 0.0 0.0
								}
							}
						}
					}
				}
			}
		}
		JOINT UpperLeg_L
		{
			OFFSET -2.19248 -6.46944 0.0
			CHANNELS 6 Xposition Yposition Zposition Zrotation Xrotation Yrotation 
			JOINT LowerLeg_L
			{
				OFFSET 39.0811 0.0 -1.23785e-05
				CHANNELS 6 Xposition Yposition Zposition Zrotation Xrotation Yrotation 
				JOINT Foot_L
				{
					OFFSET 40.9854 0.0 -1.26872e-05
					CHANNELS 6 Xposition Yposition Zposition Zrotation Xrotation Yrotation 
					JOINT Toes_L
					{
						OFFSET 11.7543 0.0 0.0
						CHANNELS 6 Xposition Yposition Zposition Zrotation Xrotation Yrotation 
						End Site
						{
							OFFSET 0.0 0.0 0.0
						}
					}
				}
			}
		}
		JOINT UpperLeg_R
		{
			OFFSET -2.19251 6.46944 0.0
			CHANNELS 6 Xposition Yposition Zposition Zrotation Xrotation Yrotation 
			JOINT LowerLeg_R
			{
				OFFSET -39.0811 -0.00228153 -0.0401928
				CHANNELS 6 Xposition Yposition Zposition Zrotation Xrotation Yrotation 
				JOINT Foot_R
				{
					OFFSET -40.9854 0.0 0.0
					CHANNELS 6 Xposition Yposition Zposition Zrotation Xrotation Yrotation 
					JOINT Toes_R
					{
						OFFSET -11.7543 0.0 0.0
						CHANNELS 6 Xposition Yposition Zposition Zrotation Xrotation Yrotation 
						End Site
						{
							OFFSET 0.0 0.0 0.0
						}
					}
				}
			}
		}
	}
}
MOTION
Frames:	8
Frame Time:	0.0333333
0.000000 0.000000 0.000000 0.000000 0.000000 -0.000000 5.585850 91.081800 0.404608 89.134700 -11.771000 7.193790 15.735700 0.000005 -0.000001 84.331700 84.660600 -81.564600 8.984550 -0.406207 -0.000000 2.895450 -1.171180 5.558240 16.377300 -0.000001 -0.000001 9.403700 -0.429125 -7.565110 6.456720 -0.000001 -0.000000 5.004400 -2.311060 -6.806420 12.994200 -0.242716 4.980390 -84.764300 -9.873580 -61.880200 5.348090 -0.000007 -0.000001 -34.343600 -62.321400 -78.168900 24.328600 0.000019 0.000005 15.202100 10.199600 -56.911700 22.291600 -0.000001 0.000005 26.891700 5.249740 1.440240 12.994500 -0.242716 -4.980390 88.377800 7.714930 -78.087300 -5.348130 -0.000001 -0.000004 -60.427300 22.252000 -5.452120 -24.328900 0.000322 -0.000009 0.472567 1.332350 -19.571000 -22.291500 -0.000108 -0.000004 15.785400 5.420700 -3.622910 -2.192480 -6.469440 -0.000000 -178.658000 -20.094100 -1.147640 39.081100 -0.000007 -0.000012 -0.071545 0.131681 28.516400 40.985400 -0.000006 -0.000013 4.516580 3.685250 -70.766700 11.754300 -0.000000 0.000003 -0.000081 -0.000862 -16.610800 -2.192510 6.469440 -0.000001 171.837000 16.766800 176.886000 -39.081100 -0.002282 -0.040193 -0.137513 0.269599 27.579500 -40.985400 0.000008 0.000006 0.369582 19.672900 -66.569100 -11.754300 -0.000006 -0.000006 -0.002245 -0.031747 -17.864000
0.000000 0.000000 0.000000 0.000000 0.000000 -0.000000 5.410330 91.114800 0.354615 89.229300 -11.106700 7.194450 15.735700 0.000005 -0.000001 84.403800 84.658800 -81.769300 8.984550 -0.406207 -0.000000 2.898000 -1.152500 5.292660 16.377300 -0.000001 -0.000001 9.189830 -0.612289 -7.146120 6.456720 -0.000001 -0.000000 5.028580 -2.359740 -6.661690 12.994200 -0.242716 4.980390 -85.203200 -9.195420 -62.295100 5.348090 -0.000007 -0.000001 -32.142800 -60.577700 -72.828000 24.328600 0.000019 0.000005 15.182400 8.155920 -62.402300 22.291600 -0.000001 0.000005 25.929600 5.241370 1.660910 12.994500 -0.242716 -4.980390 88.343600 7.775930 -77.936000 -5.348130 -0.000001 -0.000004 -60.668800 22.330000 -5.548970 -24.328900 0.000322 -0.000009 0.373493 1.036290 -19.874100 -22.291500 -0.000108 -0.000004 15.729800 5.422830 -3.694650 -2.192480 -6.469440 -0.000000 -178.579000 -20.083900 -1.128180 39.081100 -0.000007 -0.000012 -0.070000 0.129562 28.381800 40.985400 -0.000006 -0.000013 4.569240 4.355840 -70.649200 11.754300 -0.000000 0.000003 -0.000073 -0.000782 -16.607700 -2.192510 6.469440 -0.000001 171.767000 17.291500 177.044000 -39.081100 -0.002282 -0.040193 -0.140107 0.275353 27.512400 -40.985400 0.000008 0.000006 0.438909 19.537400 -66.618600 -11.754300 -0.000006 -0.000006 -0.002269 -0.032035 -17.875800
0.000000 0.000000 0.000000 0.000000 0.000000 -0.000000 5.183730 91.149100 0.277052 89.294000 -10.390000 7.143290 15.735700 0.000005 -0.000001 84.528000 84.661300 -82.034000 8.984550 -0.406207 -0.000000 2.892540 -1.123160 5.011200 16.377300 -0.000001 -0.000001 8.910910 -0.849060 -6.577050 6.456720 -0.000001 -0.000000 4.969530 -2.404850 -6.441460 12.994200 -0.242716 4.980390 -85.762600 -8.340830 -62.944100 5.348090 -0.000007 -0.000001 -29.790600 -58.061400 -66.265400 24.328600 0.000019 0.000005 14.995500 5.791430 -69.361300 22.291600 -0.000001 0.000005 24.295500 5.237220 1.769590 12.994500 -0.242716 -4.980390 88.270200 7.941730 -77.670200 -5.348130 -0.000001 -0.000004 -60.876300 22.590200 -5.640910 -24.328900 0.000322 -0.000009 0.282471 0.771569 -20.177800 -22.291500 -0.000108 -0.000004 15.636000 5.422930 -3.697860 -2.192480 -6.469440 -0.000000 -178.490000 -19.894000 -1.221770 39.081100 -0.000007 -0.000012 -0.068724 0.127650 28.297100 40.985400 -0.000006 -0.000013 4.560790 4.932290 -70.510000 11.754300 -0.000000 0.000003 -0.000072 -0.000779 -16.607600 -2.192510 6.469440 -0.000001 171.770000 17.838800 177.162000 -39.081100 -0.002282 -0.040193 -0.146780 0.289505 27.403600 -40.985400 0.000008 0.000006 0.320777 19.378200 -66.565300 -11.754300 -0.000006 -0.000006 -0.002200 -0.031189 -17.841400
0.000000 0.000000 0.000000 0.000000 0.000000 -0.000000 4.945420 91.183000 0.218290 89.331200 -9.702100 7.116870 15.735700 0.000005 -0.000001 84.876200 84.638700 -82.509200 8.984550 -0.406207 -0.000000 2.940390 -1.056250 4.756270 16.377300 -0.000001 -0.000001 8.561460 -1.132940 -5.980080 6.456720 -0.000001 -0.000000 4.830530 -2.509900 -6.226650 12.994200 -0.242716 4.980390 -86.411200 -7.310320 -63.762300 5.348090 -0.000007 -0.000001 -27.510600 -54.385900 -58.741700 24.328600 0.000019 0.000005 14.791500 3.460600 -77.125400 22.291600 -0.000001 0.000005 22.712600 5.230900 1.933170 12.994500 -0.242716 -4.980390 88.194900 8.114240 -77.413800 -5.348130 -0.000001 -0.000004 -61.152600 22.807400 -5.691290 -24.328900 0.000322 -0.000009 0.276479 0.745054 -20.432100 -22.291500 -0.000108 -0.000004 15.523200 5.419180 -3.571430 -2.192480 -6.469440 -0.000000 -178.372000 -19.637100 -1.281500 39.081100 -0.000007 -0.000012 -0.066962 0.124784 28.219200 40.985400 -0.000006 -0.000013 4.517670 5.419680 -70.377700 11.754300 -0.000000 0.000003 -0.000077 -0.000820 -16.609200 -2.192510 6.469440 -0.000001 171.818000 18.343600 177.309000 -39.081100 -0.002282 -0.040193 -0.150713 0.298181 27.318000 -40.985400 0.000008 0.000006 0.384234 19.169200 -66.602300 -11.754300 -0.000006 -0.000006 -0.002072 -0.029615 -17.777300
0.000000 0.000000 0.000000 0.000000 0.000000 -0.000000 4.690050 91.216500 0.140499 89.383800 -9.077740 7.065580 15.735700 0.000005 -0.000001 85.405000 84.603600 -83.182400 8.984550 -0.406207 -0.000000 3.014880 -0.955809 4.465890 16.377300 -0.000001 -0.000001 8.143380 -1.450720 -5.198270 6.456720 -0.000001 -0.000000 4.667630 -2.616990 -6.157070 12.994200 -0.242716 4.980390 -87.113600 -6.124800 -64.707800 5.348090 -0.000007 -0.000001 -25.697100 -49.281000 -50.751500 24.328600 0.000019 0.000005 14.568200 1.345210 -84.842500 22.291600 -0.000001 0.000005 21.579800 5.229200 1.975530 12.994500 -0.242716 -4.980390 88.105200 8.373250 -77.200800 -5.348130 -0.000001 -0.000004 -61.422800 23.084100 -5.753280 -24.328900 0.000322 -0.000009 0.203947 0.547132 -20.540700 -22.291500 -0.000108 -0.000004 15.425800 5.419020 -3.566000 -2.192480 -6.469440 -0.000000 -178.257000 -19.467800 -1.363490 39.081100 -0.000007 -0.000012 -0.066187 0.123795 28.131400 40.985400 -0.000006 -0.000013 4.464000 5.909620 -70.238200 11.754300 -0.000000 0.000003 -0.000079 -0.000838 -16.609800 -2.192510 6.469440 -0.000001 171.884000 18.776400 177.396000 -39.081100 -0.002282 -0.040193 -0.155225 0.307668 27.261000 -40.985400 0.000008 0.000006 0.518402 18.959100 -66.674000 -11.754300 -0.000006 -0.000006 -0.002315 -0.032592 -17.898400
0.000000 0.000000 0.000000 0.000000 0.000000 -0.000000 4.421380 91.242100 0.061099 89.398700 -8.505580 7.061170 15.735700 0.000005 -0.000001 85.683500 84.519500 -83.610200 8.984550 -0.406207 -0.000000 3.184060 -0.906924 4.167430 16.377300 -0.000001 -0.000001 7.630720 -1.793900 -4.246980 6.456720 -0.000001 -0.000000 4.482760 -2.737000 -6.216550 12.994200 -0.242716 4.980390 -87.924900 -4.582830 -65.608600 5.348090 -0.000007 -0.000001 -24.254500 -42.585000 -42.889200 24.328600 0.000019 0.000005 14.194800 -0.284026 -91.122400 22.291600 -0.000001 0.000005 20.821400 5.239650 1.703730 12.994500 -0.242716 -4.980390 88.029600 8.600740 -77.044800 -5.348130 -0.000001 -0.000004 -61.744800 23.666400 -5.968920 -24.328900 0.000322 -0.000009 0.121061 0.328067 -20.415900 -22.291500 -0.000108 -0.000004 15.353700 5.419390 -3.578370 -2.192480 -6.469440 -0.000000 -178.100000 -19.204300 -1.437620 39.081100 -0.000007 -0.000012 -0.066426 0.124335 28.113400 40.985400 -0.000006 -0.000013 4.372360 6.289650 -70.117500 11.754300 -0.000000 0.000003 -0.000075 -0.000800 -16.608400 -2.192510 6.469440 -0.000001 171.980000 19.197200 177.515000 -39.081100 -0.002282 -0.040193 -0.160957 0.319667 27.197100 -40.985400 0.000008 0.000006 0.495232 18.784200 -66.665500 -11.754300 -0.000006 -0.000006 -0.002209 -0.031307 -17.846100
0.000000 0.000000 0.000000 0.000000 0.000000 -0.000000 4.171160 91.258600 -0.027513 89.391400 -8.039150 7.090210 15.735700 0.000005 -0.000001 86.668900 84.439900 -84.757500 8.984550 -0.406207 -0.000000 3.350480 -0.718986 3.839700 16.377300 -0.000001 -0.000001 7.244720 -2.152680 -3.349150 6.456720 -0.000001 -0.000000 4.229660 -2.957770 -6.149580 12.994200 -0.242716 4.980390 -88.787900 -2.792520 -66.530400 5.348090 -0.000007 -0.000001 -24.428300 -34.245500 -36.391900 24.328600 0.000019 0.000005 14.303700 -1.199220 -94.692600 22.291600 -0.000001 0.000005 19.687200 5.259580 1.176360 12.994500 -0.242716 -4.980390 87.945700 8.855990 -76.884400 -5.348130 -0.000001 -0.000004 -62.149800 24.247300 -6.042460 -24.328900 0.000322 -0.000009 0.151032 0.412705 -20.229300 -22.291500 -0.000108 -0.000004 15.058300 5.415580 -3.450790 -2.192480 -6.469440 -0.000000 -177.941000 -18.902300 -1.516120 39.081100 -0.000007 -0.000012 -0.067948 0.126970 28.153800 40.985400 -0.000006 -0.000013 4.254870 6.510280 -70.014100 11.754300 -0.000000 0.000003 -0.000072 -0.000774 -16.607400 -2.192510 6.469440 -0.000001 172.100000 19.552800 177.611000 -39.081100 -0.002282 -0.040193 -0.164195 0.326195 27.180800 -40.985400 0.000008 0.000006 0.501185 18.643200 -66.665500 -11.754300 -0.000006 -0.000006 -0.001924 -0.027758 -17.701800
0.000000 0.000000 0.000000 0.000000 0.000000 -0.000000 3.928390 91.278000 -0.120304 89.377000 -7.629410 7.078220 15.735700 0.000005 -0.000001 87.291900 84.344900 -85.549100 8.984550 -0.406207 -0.000000 3.543130 -0.597883 3.500350 16.377300 -0.000001 -0.000001 6.730060 -2.468770 -2.361740 6.456720 -0.000001 -0.000000 4.065750 -3.062110 -6.208940 12.994200 -0.242716 4.980390 -89.665700 -0.807444 -67.519400 5.348090 -0.000007 -0.000001 -25.334500 -25.076000 -30.413800 24.328600 0.000019 0.000005 14.521500 -1.285520 -94.951100 22.291600 -0.000001 0.000005 18.400500 5.275320 0.754344 12.994500 -0.242716 -4.980390 87.886700 9.081320 -76.841200 -5.348130 -0.000001 -0.000004 -62.535100 25.028200 -6.217860 -24.328900 0.000322 -0.000009 0.089196 0.248215 -19.984100 -22.291500 -0.000108 -0.000004 14.895300 5.415020 -3.432170 -2.192480 -6.469440 -0.000000 -177.830000 -18.462300 -1.630060 39.081100 -0.000007 -0.000012 -0.068600 0.128105 28.168900 40.985400 -0.000006 -0.000013 4.095000 6.555660 -69.894500 11.754300 -0.000000 0.000003 -0.000073 -0.000782 -16.607700 -2.192510 6.469440 -0.000001 172.261000 19.875200 177.647000 -39.081100 -0.002282 -0.040193 -0.163476 0.324826 27.178700 -40.985400 0.000008 0.000006 0.666090 18.481400 -66.722100 -11.754300 -0.000006 -0.000006 -0.001978 -0.028442 -17.729600
